<svg xmlns="http://www.w3.org/2000/svg" xmlns:xlink="http://www.w3.org/1999/xlink" viewBox="0 0 139.79 139.79"><defs><style>.cls-1,.cls-2,.cls-3{fill:red;}.cls-1{opacity:0.1;}.cls-2{opacity:0.3;}.cls-3{opacity:0.6;}.cls-4{fill:#fff;}.cls-5{fill:url(#_6-红-112);}</style><linearGradient id="_6-红-112" x1="69.9" y1="106.25" x2="69.9" y2="33.54" gradientUnits="userSpaceOnUse"><stop offset="0" stop-color="#e42d27"/><stop offset="1" stop-color="#b21217"/></linearGradient></defs><g id="图层_2" data-name="图层 2"><g id="图层_1-2" data-name="图层 1"><circle class="cls-1" cx="69.9" cy="69.9" r="69.9"/><circle class="cls-2" cx="69.9" cy="69.9" r="59.9"/><circle class="cls-3" cx="69.9" cy="69.9" r="49.9"/><circle class="cls-4" cx="69.9" cy="69.9" r="39.9"/><circle class="cls-5" cx="69.9" cy="69.9" r="36.36"/><path class="cls-4" d="M46.26,79.21A1.58,1.58,0,0,1,48,78.13c.36,0,.46-.09.45-.45,0-1.8,0-3.6,0-5.4a8.77,8.77,0,0,1,7.83-8.9,48.53,48.53,0,0,1,5.26-.06c.24,0,.27.12.27.32,0,.36,0,.73,0,1.1,0,2.76,0,5.51,0,8.26,0,.42-.12.52-.52.51-.76,0-1.53,0-2.3,0-.27,0-.35.09-.35.35,0,1.32,0,2.64,0,4,0,.27.12.33.36.32a3.42,3.42,0,0,1,.78.06A1.36,1.36,0,0,1,60.9,79.6a1.39,1.39,0,0,1-1.21,1.3h-.1c-.91.08-.91.08-.91,1s0,1.6,0,2.4c0,.44.14.53.55.53H79.9c.27,0,.55,0,.83,0s.38-.07.38-.36c0-1.07,0-2.13,0-3.19,0-.29-.12-.38-.38-.36a2.62,2.62,0,0,1-.56,0A1.37,1.37,0,0,1,80,78.17l.32,0c.75,0,.75,0,.75-.76,0-1.16,0-2.31,0-3.46,0-.32-.09-.43-.42-.42-.79,0-1.6,0-2.4,0-.25,0-.35-.06-.35-.33q0-4.76,0-9.51c0-.21,0-.35.29-.34a53.6,53.6,0,0,1,5.67.11A8.76,8.76,0,0,1,91.22,71c.21,2.13,0,4.27.08,6.41,0,.69,0,.69.7.71a1.45,1.45,0,0,1,1.5,1.12,1.4,1.4,0,0,1-.73,1.51,1.87,1.87,0,0,1-1,.15c-.35,0-.44.09-.43.44,0,1,0,2,0,3,0,.37.12.47.45.43a1.87,1.87,0,0,1,.41,0,1.38,1.38,0,0,1,1.36,1.35,1.4,1.4,0,0,1-1.34,1.42,4.34,4.34,0,0,1-.51,0q-21.73,0-43.48,0a1.88,1.88,0,0,1-1.93-1v-.74a1.57,1.57,0,0,1,1.79-1c.35,0,.45-.09.44-.44,0-1,0-2,0-3,0-.36-.11-.46-.44-.43a1.57,1.57,0,0,1-1.79-1Z"/><path class="cls-4" d="M75.17,68.41c0,2.25,0,4.49,0,6.74,0,.44-.14.58-.58.58q-4.71,0-9.42,0c-.45,0-.57-.15-.57-.59q0-6.73,0-13.47c0-.44.14-.59.58-.59q4.71,0,9.41,0c.45,0,.58.16.58.6C75.16,63.92,75.17,66.17,75.17,68.41Z"/><path class="cls-4" d="M69.89,52.18h6.55a1.39,1.39,0,0,1,1.32,2.09,1.33,1.33,0,0,1-1.14.68c-.63,0-1.26,0-1.89,0-.37,0-.51.08-.5.48,0,.84,0,1.69,0,2.53,0,.26-.08.35-.34.35h-8c-.31,0-.34-.14-.34-.39,0-.85,0-1.69,0-2.54,0-.36-.11-.44-.44-.43q-.9,0-1.8,0a1.38,1.38,0,0,1-1.47-1.38,1.39,1.39,0,0,1,1.51-1.39Z"/></g></g></svg>