<svg xmlns="http://www.w3.org/2000/svg" xmlns:xlink="http://www.w3.org/1999/xlink" viewBox="0 0 139.79 139.79"><defs><style>.cls-1,.cls-2,.cls-3{fill:red;}.cls-1{opacity:0.1;}.cls-2{opacity:0.3;}.cls-3{opacity:0.6;}.cls-4{fill:#fff;}.cls-5{fill:url(#_6-红-112);}</style><linearGradient id="_6-红-112" x1="69.9" y1="106.25" x2="69.9" y2="33.54" gradientUnits="userSpaceOnUse"><stop offset="0" stop-color="#e42d27"/><stop offset="1" stop-color="#b21217"/></linearGradient></defs><g id="图层_2" data-name="图层 2"><g id="图层_1-2" data-name="图层 1"><circle class="cls-1" cx="69.9" cy="69.9" r="69.9"/><circle class="cls-2" cx="69.9" cy="69.9" r="59.9"/><circle class="cls-3" cx="69.9" cy="69.9" r="49.9"/><circle class="cls-4" cx="69.9" cy="69.9" r="39.9"/><circle class="cls-5" cx="69.9" cy="69.9" r="36.36"/><path class="cls-4" d="M91.63,67.57c-.13.14-.13.34-.2.51A3.82,3.82,0,0,1,86.7,70.3a.32.32,0,0,0-.37,0,3,3,0,0,1-2.83.56c-.14-.05-.27-.12-.41,0-1.28,1.54-3.4.66-3.84-1.23a2.08,2.08,0,0,1,1.84-2.62.6.6,0,0,0,.51-.39A2.88,2.88,0,0,1,84.28,65c.29,0,.39-.15.53-.34a3.77,3.77,0,0,1,6.28.16,7.22,7.22,0,0,1,.54,1.28Z"/><path class="cls-4" d="M61.38,91.34H49.07c-.34,0-.65,0-.83-.36a.81.81,0,0,1,.17-.9,33.92,33.92,0,0,0,5.15-12,30.24,30.24,0,0,0,.51-3.26c0-.28.13-.34.39-.34q6.95,0,13.88,0c.28,0,.38.06.41.36a33.25,33.25,0,0,0,5.65,15.3.72.72,0,0,1,.14.82c-.16.3-.46.33-.77.33Z"/><path class="cls-4" d="M82.61,91.34c-2.17,0-4.33,0-6.49,0-.3,0-.46,0-.35-.39a1.49,1.49,0,0,0-.41-1.49c-.62-.63-.52-1.17-.14-1.92A17.3,17.3,0,0,0,77.1,79a12,12,0,0,0-.77-4.15c-.19-.47.1-.85.64-.85h9.29c.7,0,1,.37.76,1a15.94,15.94,0,0,0,.06,9.4A20,20,0,0,0,89.73,90a1.25,1.25,0,0,1,.27.61c0,.44-.31.72-.82.72Z"/><path class="cls-4" d="M61.33,73.26c-2.27,0-4.53,0-6.79,0-.37,0-.44-.1-.43-.45a24.67,24.67,0,0,0-.93-7.5,4.71,4.71,0,0,0-.27-.71.63.63,0,0,1,.61-.9c5.12.09,10.24,0,15.36,0l.25,0a.64.64,0,0,1,.72.88,24.85,24.85,0,0,0-1.22,8.21c0,.35-.07.45-.43.45C65.91,73.25,63.62,73.26,61.33,73.26Z"/><path class="cls-4" d="M72.29,57.83a4.08,4.08,0,0,1-1.52-.27.4.4,0,0,0-.45.09,3.76,3.76,0,0,1-3.78.68.4.4,0,0,0-.5.14,2.6,2.6,0,0,1-2.48,1c-.12,0-.25-.05-.34.09A1.2,1.2,0,0,1,62,60a2.6,2.6,0,0,1-2-1.2,1.45,1.45,0,0,1,.73-2.17.47.47,0,0,0,.37-.42A2.77,2.77,0,0,1,64,53.81c.19,0,.24-.08.29-.22A3.73,3.73,0,0,1,68,51c.25,0,.33-.11.45-.28a4.7,4.7,0,1,1,5,7A5.34,5.34,0,0,1,72.29,57.83Z"/></g></g></svg>