<svg xmlns="http://www.w3.org/2000/svg" viewBox="0 0 79.79 79.79"><defs><style>.cls-1{fill:#fff;}.cls-2{fill:#2d62ff;}</style></defs><g id="图层_2" data-name="图层 2"><g id="图层_1-2" data-name="图层 1"><circle class="cls-1" cx="39.9" cy="39.9" r="39.9"/><circle class="cls-2" cx="39.9" cy="39.9" r="36.36"/><path class="cls-1" d="M60.42,55.71a4,4,0,0,1-4.14-1.5,3.41,3.41,0,0,0-.58-.62,1.86,1.86,0,0,0-2.64.6,4.1,4.1,0,0,1-6.52.06,2.66,2.66,0,0,0-.59-.66,1.85,1.85,0,0,0-2.62.57,4.05,4.05,0,0,1-5.14,1.23A4.09,4.09,0,0,1,36.61,54a1.74,1.74,0,0,0-1.93-.7,2.07,2.07,0,0,0-1.15.91,4.17,4.17,0,0,1-6.49,0,3.41,3.41,0,0,0-.6-.66,1.85,1.85,0,0,0-2.62.54,4.23,4.23,0,0,1-4.75,1.45v4.23a1.49,1.49,0,0,0,1.55.9h38.9a1.18,1.18,0,0,0,1.18-1.19c0-1.19,0-2.39,0-3.58C60.71,55.71,60.67,55.66,60.42,55.71Z"/><path class="cls-1" d="M59.68,48.54a2.29,2.29,0,0,1-1.77-1.06,4.12,4.12,0,0,0-6.57.12,1.83,1.83,0,0,1-3,.07,4.15,4.15,0,0,0-6.78,0,1.76,1.76,0,0,1-3,0,4,4,0,0,0-3.25-1.73,3.86,3.86,0,0,0-3.45,1.69,1.83,1.83,0,0,1-3,.07,4.22,4.22,0,0,0-6.84,0,1.9,1.9,0,0,1-1.5.86,1.45,1.45,0,0,0-1.38.92v3.41l.36.25A1.84,1.84,0,0,0,22,52.52,4.26,4.26,0,0,1,26.47,51a3.88,3.88,0,0,1,2.23,1.52,1.81,1.81,0,0,0,2.3.74,2.79,2.79,0,0,0,1-.93,4,4,0,0,1,4-1.37,4,4,0,0,1,2.42,1.57,1.8,1.8,0,0,0,2.26.75,2.25,2.25,0,0,0,.9-.8,4.13,4.13,0,0,1,6.58,0,1.81,1.81,0,0,0,2.28.78,2.24,2.24,0,0,0,.92-.83A4.13,4.13,0,0,1,55.77,51a4.61,4.61,0,0,1,2.43,1.78,1.71,1.71,0,0,0,2.3.31.43.43,0,0,0,.21-.4c0-1,0-2,0-2.93A1.13,1.13,0,0,0,59.68,48.54Z"/><path class="cls-1" d="M29,36.15h2.48a2.42,2.42,0,0,0,2.42-2.43q0-6.12,0-12.24a2.39,2.39,0,0,0-1.45-2.21c-.16-.08-.37-.05-.5-.2h-3.5c0,.13-.15.1-.22.13a2.43,2.43,0,0,0-1.65,2.32q0,6.11,0,12.2A2.41,2.41,0,0,0,29,36.15Z"/><path class="cls-1" d="M20.62,33.72c1.05,0,2.11,0,3.17,0,.26,0,.33-.07.33-.34,0-3.85,0-7.69,0-11.54,0-.27-.07-.34-.33-.34-1.06,0-2.12,0-3.17,0a1.45,1.45,0,0,0-1.55.9V32.81A1.45,1.45,0,0,0,20.62,33.72Z"/><path class="cls-1" d="M36.78,34a8.47,8.47,0,0,1,6.79,7.42c.07.74,0,1.48.07,2.24a8.25,8.25,0,0,1,1.71-.12,6.59,6.59,0,0,1,4.24,2c.12.12.2.2.36,0a6.38,6.38,0,0,1,3.12-1.79.27.27,0,0,0,.23-.34,16,16,0,0,0-3.38-8.58,1.2,1.2,0,1,1,1.91-1.46,18,18,0,0,1,3.83,9.81c0,.35.14.51.49.58a6,6,0,0,1,3.44,2,1.79,1.79,0,0,0,1.09.61,23.28,23.28,0,0,0-14.1-23A22.93,22.93,0,0,0,36.7,21.5c-.32,0-.4.08-.4.4q0,5.73,0,11.46C36.3,33.75,36.41,33.88,36.78,34Zm2.63-4a1,1,0,0,1,.55-.13,4,4,0,0,1,1.62.66,13.56,13.56,0,0,1,5.53,5.77A1.23,1.23,0,0,1,46.67,38,1.17,1.17,0,0,1,45,37.46a11.52,11.52,0,0,0-3.64-4.23,14.69,14.69,0,0,0-1.93-1.09,1.2,1.2,0,0,1,0-2.14Z"/></g></g></svg>