<svg xmlns="http://www.w3.org/2000/svg" xmlns:xlink="http://www.w3.org/1999/xlink" viewBox="0 0 114.15 150.49"><defs><style>.cls-1,.cls-2{fill:#333;}.cls-1{opacity:0.36;}.cls-2{opacity:0.8;}.cls-3{fill:#fff;}.cls-4{fill:url(#_6-红-112);}.cls-5{fill:url(#_6-红-112-2);}.cls-6{fill:url(#_6-红-112-3);}.cls-7{fill:url(#_6-红-112-4);}.cls-8{fill:url(#_6-红-112-5);}</style><linearGradient id="_6-红-112" x1="57.08" y1="129.36" x2="57.08" y2="3.56" gradientUnits="userSpaceOnUse"><stop offset="0" stop-color="#e42d27"/><stop offset="1" stop-color="#b21217"/></linearGradient><linearGradient id="_6-红-112-2" x1="57.08" y1="87.15" x2="57.08" y2="26.85" xlink:href="#_6-红-112"/><linearGradient id="_6-红-112-3" x1="57.13" y1="87.15" x2="57.13" y2="26.85" xlink:href="#_6-红-112"/><linearGradient id="_6-红-112-4" x1="57.13" y1="87.15" x2="57.13" y2="26.85" xlink:href="#_6-红-112"/><linearGradient id="_6-红-112-5" x1="57.11" y1="87.15" x2="57.11" y2="26.85" xlink:href="#_6-红-112"/></defs><g id="图层_2" data-name="图层 2"><g id="图层_1-2" data-name="图层 1"><ellipse class="cls-1" cx="57.08" cy="134.62" rx="42.83" ry="15.87"/><ellipse class="cls-2" cx="57.08" cy="134.62" rx="34.83" ry="9.44"/><path class="cls-3" d="M57.08,132.92a7.13,7.13,0,0,1-6.24-3.6l-8.76-15.17H34.92A35,35,0,0,1,0,79.23V34.92A35,35,0,0,1,34.92,0H79.23a35,35,0,0,1,34.92,34.92V79.23a35,35,0,0,1-34.92,34.92H72.07l-8.75,15.17A7.16,7.16,0,0,1,57.08,132.92Z"/><path class="cls-4" d="M79.23,3.56H34.92A31.36,31.36,0,0,0,3.56,34.92V79.24a31.36,31.36,0,0,0,31.36,31.35h9.22l9.78,16.94a3.64,3.64,0,0,0,6.31,0L70,110.59h9.22a31.36,31.36,0,0,0,31.36-31.35V34.92A31.36,31.36,0,0,0,79.23,3.56Z"/><rect class="cls-3" x="17.81" y="17.81" width="78.54" height="78.54" rx="17.11" transform="translate(114.15 0) rotate(90)"/><path class="cls-5" d="M85,54.9c-.11-.64-.06-1.3-.15-1.94a27.56,27.56,0,0,0-7.79-15.61,26.11,26.11,0,0,0-6.4-4.85,25.67,25.67,0,0,0-10.2-3.22,6.09,6.09,0,0,1-1.28-.1H54.93c-.63.11-1.26.06-1.89.14a25.93,25.93,0,0,0-8,2.41A28.45,28.45,0,0,0,32.24,44.05a25.64,25.64,0,0,0-3,10.82,48.74,48.74,0,0,0,.09,5.92.93.93,0,0,0,.4.74,26.57,26.57,0,0,0,3.89,2.59,3.62,3.62,0,0,0,4.55-.66,6.73,6.73,0,0,1,5.73-1.58,7.33,7.33,0,0,1,3.57,1.78,3.78,3.78,0,0,0,4.74.14c.34-.24.64-.54,1-.78a6.87,6.87,0,0,1,8.6.52,4,4,0,0,0,5.47-.07,6.81,6.81,0,0,1,8.59-.34c.32.25.61.53.93.76a3.21,3.21,0,0,0,2.72.64,8.31,8.31,0,0,0,2.16-.88c.91-.53,1.75-1.18,2.65-1.71a1.21,1.21,0,0,0,.62-1.12A8.89,8.89,0,0,1,85,59.36v-1a1.44,1.44,0,0,1,0-.87V55.66a.14.14,0,0,1,0-.22Zm-20.85-.12a8.38,8.38,0,0,1-7.1,3.52,8.21,8.21,0,0,1-8.28-6.55,11.38,11.38,0,0,1,.84-6.85A24.61,24.61,0,0,1,56,36.2a1.49,1.49,0,0,1,2.16-.06c3.34,3.08,6.09,6.56,7.17,11.09A9,9,0,0,1,64.15,54.78Z"/><path class="cls-6" d="M69,74.69a6.92,6.92,0,0,1-9.26-.11,3.54,3.54,0,0,0-1.07-.72,3.79,3.79,0,0,0-4.22.78A6.68,6.68,0,0,1,49,76.28a6.94,6.94,0,0,1-3.87-1.79,3.65,3.65,0,0,0-4.66-.23,8.54,8.54,0,0,1-3.57,2c10.69,11.7,30,11.55,40.45-.06a6.5,6.5,0,0,1-2.94-1.53A3.89,3.89,0,0,0,69,74.69Z"/><path class="cls-7" d="M75.56,66.63c-.72-.45-1.45-.9-2.2-1.28a3.41,3.41,0,0,0-4.21.52,7,7,0,0,1-9.48-.05,3.75,3.75,0,0,0-2.79-1A4.19,4.19,0,0,0,54.37,66a7,7,0,0,1-9,0,3.73,3.73,0,0,0-5.45,0,6.77,6.77,0,0,1-6,1.57,8.55,8.55,0,0,1-3.21-1.41,25.19,25.19,0,0,0,3.34,6.73.55.55,0,0,0,.41.21,3.75,3.75,0,0,0,3.5-1,7,7,0,0,1,9.2-.08,3.7,3.7,0,0,0,5.32,0,7,7,0,0,1,9.33.13,3.67,3.67,0,0,0,5,.13,8.76,8.76,0,0,1,1.25-1,7,7,0,0,1,8.24.76,3.93,3.93,0,0,0,2.43,1.06,1.57,1.57,0,0,0,1.73-.8c.51-.93,1.1-1.82,1.57-2.78a23.77,23.77,0,0,0,1.44-3.45c-.31.18-.54.31-.77.46A6.21,6.21,0,0,1,75.56,66.63Z"/><path class="cls-8" d="M57.3,39.8c-.23-.26-.33-.06-.45.08A23.17,23.17,0,0,0,53.67,44a11.6,11.6,0,0,0-1.85,5.8,8,8,0,0,0,.23,1.67,5.34,5.34,0,0,0,10.12,0,7.61,7.61,0,0,0-.23-4.38A19.89,19.89,0,0,0,57.3,39.8Z"/></g></g></svg>