<svg xmlns="http://www.w3.org/2000/svg" viewBox="0 0 79.79 79.79"><defs><style>.cls-1{fill:#fff;}.cls-2{fill:#684bff;}</style></defs><g id="图层_2" data-name="图层 2"><g id="图层_1-2" data-name="图层 1"><circle class="cls-1" cx="39.9" cy="39.9" r="39.9"/><circle class="cls-2" cx="39.9" cy="39.9" r="36.36"/><path class="cls-1" d="M61.63,37.57a1.33,1.33,0,0,0-.2.51A3.82,3.82,0,0,1,56.7,40.3a.32.32,0,0,0-.37,0,3,3,0,0,1-2.83.56c-.14,0-.27-.12-.41.05-1.28,1.54-3.4.66-3.84-1.23a2.08,2.08,0,0,1,1.84-2.62.6.6,0,0,0,.51-.39A2.88,2.88,0,0,1,54.28,35c.29,0,.39-.15.53-.34a3.77,3.77,0,0,1,6.28.16,7.22,7.22,0,0,1,.54,1.28Z"/><path class="cls-1" d="M31.38,61.34H19.07c-.34,0-.65,0-.83-.36a.81.81,0,0,1,.17-.9,33.92,33.92,0,0,0,5.15-11.95,30.24,30.24,0,0,0,.51-3.26c0-.28.13-.34.39-.34H38.34c.28,0,.38.06.4.36a33.37,33.37,0,0,0,5.66,15.3.72.72,0,0,1,.14.82c-.16.3-.46.33-.77.33Z"/><path class="cls-1" d="M52.61,61.34c-2.17,0-4.33,0-6.49,0-.3,0-.46,0-.35-.39a1.49,1.49,0,0,0-.41-1.49c-.62-.63-.52-1.17-.14-1.92A17.3,17.3,0,0,0,47.1,49a12,12,0,0,0-.77-4.15c-.19-.47.1-.85.64-.85h9.29c.7,0,1,.37.76,1a15.94,15.94,0,0,0,.06,9.4A20,20,0,0,0,59.73,60a1.15,1.15,0,0,1,.26.61c0,.44-.3.72-.81.72Z"/><path class="cls-1" d="M31.33,43.26c-2.27,0-4.53,0-6.79,0-.37,0-.44-.1-.43-.45a24.67,24.67,0,0,0-.93-7.5,4.71,4.71,0,0,0-.27-.71.63.63,0,0,1,.61-.9c5.12.09,10.24,0,15.36,0l.25,0a.64.64,0,0,1,.72.88,24.85,24.85,0,0,0-1.22,8.21c0,.35-.07.45-.43.45C35.91,43.25,33.62,43.26,31.33,43.26Z"/><path class="cls-1" d="M42.29,27.83a4.08,4.08,0,0,1-1.52-.27.39.39,0,0,0-.45.09,3.76,3.76,0,0,1-3.78.68.4.4,0,0,0-.5.14,2.6,2.6,0,0,1-2.48,1c-.12,0-.25-.05-.34.09A1.2,1.2,0,0,1,32,30a2.6,2.6,0,0,1-2-1.2,1.45,1.45,0,0,1,.73-2.17.48.48,0,0,0,.37-.42A2.77,2.77,0,0,1,34,23.81c.19,0,.24-.08.29-.22A3.73,3.73,0,0,1,38,21c.25,0,.33-.11.45-.28a4.7,4.7,0,1,1,5,7A5.34,5.34,0,0,1,42.29,27.83Z"/></g></g></svg>